<?xml version="1.0" encoding="utf-8"?>
<!-- Generator: Adobe Illustrator 16.0.0, SVG Export Plug-In . SVG Version: 6.00 Build 0)  -->
<!DOCTYPE svg PUBLIC "-//W3C//DTD SVG 1.1//EN" "http://www.w3.org/Graphics/SVG/1.1/DTD/svg11.dtd">
<svg version="1.1" id="Layer_1" xmlns="http://www.w3.org/2000/svg" xmlns:xlink="http://www.w3.org/1999/xlink" x="0px" y="0px"
	 width="237.106px" height="98.607px" viewBox="0 0 237.106 98.607" enable-background="new 0 0 237.106 98.607"
	 xml:space="preserve">
<g id="Logo_1_">
	<path display="none" d="M218.614,61.623L218.614,61.623H43.004c-10.213,0-18.492,8.279-18.492,18.492
		c-0.002,10.213,8.279,18.492,18.492,18.492h175.61l0,0c10.213,0,18.492-8.279,18.492-18.492S228.827,61.625,218.614,61.623"/>
	<path display="none" fill="#0779BE" d="M70.688,6.334h13.896c0.906,0.001,1.604,0.081,1.602,1.417v8.177
		c0,1.015-0.373,1.765-1.068,1.764h-2.459c-1.016,0.001-1.441-0.054-1.869-1.978s-0.91-4.062-1.283-4.916
		c-0.373-0.855-0.588-0.855-1.068-0.855s-1.102-0.08-1.225,0.721c-0.094,0.637-3.105,35.836-3.158,36.583
		c-0.055,0.748,0.055,1.604,0.801,1.978c0.75,0.375,1.818,0.375,1.818,1.656s-0.053,2.752-1.658,2.752h-16.4
		c-0.961,0.002-1.824,0.188-1.824-1.041c0-1.23,0.107-2.299,1.443-2.832c1.336-0.535,1.604-0.48,1.764-1.924
		c0.162-1.444,3.26-37.199,3.26-37.199s0.16-0.694-0.48-0.694l-1.016,0.001c-0.268-0.001-1.176-0.053-1.604,1.229
		c-0.428,1.283-1.334,4.703-1.549,5.291s-0.654,1.443-2.363,1.443c-1.711-0.001-3.463,0-3.195-1.924s0.908-6.627,1.23-7.643
		c0.32-1.016,0.746-2.005,3.045-2.005H70.688z"/>
	<path fill="#FFFFFF" d="M84.584,6.333c0.908,0.002,1.604,0.082,1.604,1.418l-0.002,8.177c0.002,1.016-0.373,1.764-1.068,1.764
		l-2.459-0.001c-1.016,0-1.441-0.053-1.869-1.977s-0.908-4.062-1.283-4.916c-0.375-0.856-0.588-0.856-1.068-0.856
		c-0.08,0.001-0.166-0.001-0.25-0.001c-0.424-0.001-0.873,0.055-0.973,0.724c-0.096,0.636-3.107,35.833-3.16,36.582
		s0.053,1.603,0.801,1.978c0.748,0.373,1.818,0.373,1.818,1.656s-0.053,2.752-1.656,2.752H58.615c-0.223,0-0.443,0.01-0.646,0.012
		c-0.67-0.002-1.176-0.109-1.178-1.053c0-1.229,0.109-2.299,1.443-2.832c1.336-0.535,1.604-0.482,1.764-1.925
		c0.162-1.443,3.26-37.198,3.26-37.198s0.16-0.694-0.48-0.694h-1.016c-0.02,0-0.045,0-0.072,0c-0.332,0.001-1.135,0.046-1.531,1.229
		c-0.428,1.283-1.334,4.703-1.549,5.291c-0.213,0.588-0.654,1.443-2.363,1.443c-1.711,0-3.463,0-3.195-1.924s0.908-6.627,1.23-7.643
		c0.32-1.016,0.746-2.004,3.045-2.004h13.361L84.584,6.333 M84.584,5.181H70.688L57.326,5.18c-2.863,0.001-3.686,1.351-4.146,2.812
		c-0.307,0.972-0.795,4.379-1.227,7.498l-0.047,0.334c-0.125,0.904,0.061,1.65,0.551,2.215c0.891,1.021,2.43,1.021,3.789,1.021
		c1.756,0,2.916-0.741,3.447-2.203c0.107-0.297,0.316-1.033,0.65-2.211c0.322-1.146,0.688-2.443,0.91-3.109
		c0.146-0.439,0.281-0.439,0.436-0.439h0.074h0.297c-0.396,4.556-3.062,35.295-3.209,36.61c-0.043,0.369-0.08,0.529-0.104,0.596
		c-0.102,0.058-0.34,0.148-0.553,0.231l-0.389,0.152c-2.168,0.868-2.17,2.842-2.168,3.905c0,0.824,0.301,2.207,2.328,2.207
		c0.109,0,0.221-0.002,0.336-0.006c0.102-0.002,0.207-0.006,0.312-0.004l16.4-0.002c2.812,0.002,2.812-2.838,2.812-3.904
		c0-1.811-1.381-2.297-2.047-2.53c-0.139-0.051-0.281-0.098-0.41-0.161c-0.16-0.081-0.191-0.499-0.164-0.862
		c0.018-0.254,2.789-32.762,3.123-36.234l0.043,0.002c0.021,0.043,0.047,0.097,0.076,0.163c0.342,0.78,0.865,3.142,1.213,4.704
		c0.484,2.182,1.213,2.883,2.998,2.883h2.457c1.107,0,2.225-0.904,2.225-2.919V7.751C87.342,5.181,85.264,5.18,84.584,5.181"/>
	<path display="none" fill="#0779BE" d="M128.624,53.632c-0.961,0-2.238,0.188-2.238-1.041s0.521-2.299,1.857-2.832
		c1.336-0.535,1.604-0.482,1.764-1.924c0.139-1.25,2.482-28.225,3.107-35.438c0,0,0.426-1.172-1.178-1.814
		c-1.604-0.642-1.871-1.068-1.656-2.459c0.213-1.389,0.213-1.789,1.924-1.789l22.928-0.001c1.656,0,1.924,0.027,2.459,2.005
		c0.533,1.977,1.121,6.413,1.229,7.055c0.107,0.641-0.053,1.336-1.123,1.336h-2.352c-0.641,0-1.391,0.213-1.977-1.549
		c-0.588-1.766-2.031-5.239-3.529-5.238l-1.869-0.001c-0.428,0.001-0.855,0.215-0.854,1.39c0,1.176-1.232,14.751-1.232,14.751
		s-0.158,0.534,0.697,0.535c0.855-0.001,1.977-0.054,2.512-0.054c0.801,0,1.014-0.535,1.496-1.871
		c0.48-1.336,0.695-1.869,0.855-2.189c0.16-0.322,0.213-0.59,1.336-0.589l2.352-0.001c0.854,0.001,1.068,0.161,1.016,0.855
		c-0.055,0.695-0.75,10.154-0.803,10.797c-0.053,0.641-0.32,1.228-0.961,1.228h-2.834c-0.746,0.001-0.961-0.32-1.121-1.067
		c-0.16-0.749-0.215-1.497-0.375-2.032c-0.16-0.534-0.428-1.39-1.656-1.389h-2.406c-0.268-0.001-0.48,0.159-0.48,0.642
		c0,0.481-1.604,19.081-1.604,19.081s0.375,0.266,0.91,0.266c0.533,0,2.885,0.268,3.9-1.497c1.016-1.764,2.619-4.863,2.939-5.451
		s1.496-1.229,3.047-1.229c1.549,0,2.617,0,2.191,1.602c-0.428,1.604-2.459,8.366-2.674,9.141c-0.213,0.773-0.746,0.773-1.441,0.773
		H128.624z"/>
	<path fill="#FFFFFF" d="M155.131,6.334c1.656,0.001,1.924,0.027,2.459,2.005c0.533,1.977,1.121,6.413,1.229,7.055
		c0.107,0.641-0.055,1.336-1.123,1.336h-2.352c-0.125,0-0.254,0.008-0.385,0.008c-0.543,0-1.119-0.139-1.592-1.557
		c-0.588-1.766-2.031-5.239-3.529-5.238h-1.869c-0.428-0.001-0.855,0.214-0.855,1.389c0.002,1.176-1.23,14.751-1.23,14.751
		s-0.158,0.535,0.695,0.534c0.857,0,1.979-0.053,2.514-0.053c0.801,0,1.014-0.535,1.496-1.871c0.48-1.336,0.695-1.869,0.854-2.191
		c0.162-0.32,0.215-0.588,1.338-0.587l2.352-0.001c0.854,0.001,1.068,0.161,1.016,0.855c-0.055,0.694-0.748,10.154-0.803,10.797
		c-0.053,0.641-0.32,1.228-0.961,1.228h-2.834c-0.746,0.001-0.961-0.32-1.121-1.067c-0.16-0.749-0.215-1.497-0.375-2.032
		c-0.16-0.534-0.428-1.39-1.656-1.389h-2.406c-0.268-0.001-0.48,0.16-0.48,0.642s-1.604,19.081-1.604,19.081s0.375,0.266,0.91,0.266
		c0.123,0.002,0.346,0.014,0.627,0.016c0.928,0,2.494-0.158,3.273-1.512c1.016-1.764,2.619-4.863,2.939-5.451
		s1.496-1.229,3.047-1.229c1.549,0,2.617,0,2.191,1.602c-0.428,1.604-2.459,8.366-2.674,9.141c-0.213,0.773-0.748,0.775-1.441,0.773
		h-24.156c-0.225,0-0.467,0.01-0.705,0.012c-0.783,0-1.535-0.109-1.533-1.053c0-1.229,0.521-2.299,1.857-2.832
		c1.336-0.535,1.604-0.48,1.764-1.925c0.139-1.249,2.482-28.224,3.107-35.437c0,0,0.426-1.172-1.178-1.814
		c-1.604-0.642-1.871-1.068-1.656-2.459c0.213-1.389,0.213-1.789,1.924-1.789L155.131,6.334 M155.131,5.18h-22.928
		c-2.459,0.001-2.803,1.042-3.045,2.63l-0.021,0.139c-0.336,2.186,0.574,2.988,2.369,3.707c0.408,0.163,0.521,0.348,0.521,0.348
		l-0.051,0.144l-0.014,0.15c-0.494,5.69-2.963,34.138-3.105,35.41c-0.039,0.37-0.078,0.529-0.102,0.597
		c-0.102,0.057-0.342,0.147-0.555,0.23l-0.389,0.152c-1.666,0.667-2.584,2.053-2.582,3.905c-0.002,0.824,0.348,2.207,2.688,2.207
		c0.131,0,0.26-0.004,0.389-0.006c0.107-0.002,0.213-0.004,0.316-0.006l24.154,0.002c0.686,0,2.109,0,2.557-1.623
		c0.078-0.281,0.398-1.361,0.793-2.695c0.717-2.417,1.607-5.422,1.883-6.454c0.09-0.336,0.361-1.358-0.268-2.176
		c-0.674-0.879-1.824-0.879-3.041-0.879c-1.801-0.001-3.471,0.752-4.059,1.831c-0.086,0.156-0.26,0.485-0.488,0.922
		c-0.635,1.205-1.699,3.222-2.438,4.505c-0.361,0.629-1.105,0.934-2.273,0.934c-0.113-0.002-0.213-0.002-0.303-0.006
		c0.402-4.667,1.309-15.215,1.49-17.69h1.766c0.338,0.002,0.387,0.021,0.551,0.568c0.068,0.225,0.119,0.561,0.174,0.916
		c0.049,0.328,0.104,0.677,0.178,1.025c0.115,0.541,0.424,1.98,2.25,1.98h2.834c1.168,0,1.996-0.897,2.111-2.288
		c0.033-0.397,0.314-4.196,0.535-7.188c0.135-1.826,0.246-3.351,0.268-3.614c0.021-0.269,0.074-0.977-0.432-1.523
		c-0.467-0.505-1.109-0.575-1.734-0.575h-2.352c-1.277,0-1.936,0.332-2.348,1.18c-0.219,0.441-0.457,1.047-0.93,2.363
		c-0.133,0.365-0.322,0.892-0.447,1.106c-0.273,0.002-0.607,0.012-0.977,0.023c-0.312,0.009-0.652,0.019-0.979,0.024
		c0.271-3.021,1.168-13.051,1.168-14.125c0.002-0.094,0.004-0.172,0.008-0.234h1.564c0.42,0.117,1.525,1.732,2.432,4.447
		c0.533,1.602,1.387,2.348,2.688,2.348c0.078,0.001,0.156-0.002,0.232-0.005l0.152-0.003h2.352c0.98,0,1.529-0.406,1.818-0.746
		c0.291-0.345,0.605-0.96,0.443-1.936c-0.02-0.115-0.057-0.365-0.105-0.705c-0.227-1.555-0.697-4.789-1.148-6.459
		C158.034,5.555,157.299,5.18,155.131,5.18"/>
	<path display="none" fill="#0779BE" d="M164.217,6.334c-1.711,0-1.766,0.669-1.979,2.058c-0.215,1.39,0.244,1.961,1.764,2.779
		c0.701,0.379,0.805,1.227,0.805,1.227c-0.627,7.213-2.969,34.188-3.107,35.437c-0.162,1.445-0.371,1.289-1.592,2.05
		c-1.082,0.676-1.361,1.48-1.262,2.707c0.1,1.203,1.623,1.041,2.584,1.041h6.855c1.361,0.002,1.643-1.082,1.803-1.844
		c0.162-0.76-0.061-1.521-1.143-2.223c-1.082-0.703-1.584-0.704-1.441-2.286c0.139-1.584,1.963-22.849,1.963-22.849l4.77,18.245
		c0,0,0.16,0.508,0.588,0.508h3.125c0.295,0,0.43,0.053,0.75-0.722s8.018-18.599,8.018-18.599s-1.791,20.711-1.926,22.18
		c-0.133,1.47,0.002,2.752-1.521,3.18c-1.523,0.428-1.738,0.963-1.766,2.164c-0.025,1.203-0.266,2.256,1.498,2.256l16.434-0.002
		c1.148,0.002,1.15-0.943,1.229-1.879c0.08-0.936,0.268-1.818-0.801-2.352c-1.068-0.534-1.684-0.562-1.576-1.926
		c0.105-1.361,2.832-33.59,2.939-34.604c0.107-1.017,0.348-1.498,1.361-1.978c1.016-0.481,1.791-0.614,2.006-2.058
		c0.213-1.443,0.213-2.513-1.176-2.513H190.11c-0.266,0-0.453-0.026-0.668,0.481s-7.428,17.236-7.428,17.236l-4.33-17.049
		c0,0,0-0.669-0.936-0.668L164.217,6.334z"/>
	<path fill="#FFFFFF" d="M190.036,6.333c0.023,0,0.049,0.002,0.074,0.001h13.309c1.391,0.001,1.391,1.069,1.176,2.513
		c-0.215,1.442-0.99,1.576-2.006,2.057c-1.014,0.48-1.256,0.963-1.361,1.979c-0.107,1.016-2.834,33.242-2.939,34.605
		c-0.107,1.362,0.506,1.389,1.576,1.924c1.068,0.535,0.883,1.416,0.803,2.35c-0.08,0.938-0.08,1.881-1.23,1.883l-16.434-0.002
		c-1.766,0.002-1.523-1.051-1.496-2.254c0.025-1.201,0.24-1.736,1.764-2.164c1.521-0.428,1.389-1.71,1.523-3.18
		c0.133-1.471,1.924-22.18,1.924-22.18s-7.697,17.823-8.018,18.599c-0.281,0.681-0.418,0.722-0.648,0.722c-0.031,0-0.062,0-0.1,0
		h-3.127c-0.428,0-0.588-0.508-0.588-0.508l-4.77-18.244c0,0-1.822,21.264-1.965,22.847c-0.141,1.583,0.361,1.583,1.443,2.287
		c1.082,0.701,1.303,1.463,1.143,2.223c-0.16,0.762-0.439,1.844-1.805,1.844l-6.854,0.002c-0.203-0.002-0.43,0.006-0.664,0.006
		c-0.877,0-1.842-0.1-1.92-1.049c-0.102-1.225,0.18-2.031,1.262-2.707c1.221-0.76,1.432-0.607,1.59-2.049
		c0.141-1.25,2.482-28.225,3.109-35.438c0,0-0.104-0.85-0.805-1.227c-1.52-0.819-1.979-1.39-1.764-2.779
		c0.215-1.389,0.268-2.057,1.977-2.057l12.533-0.001c0.936,0,0.936,0.669,0.936,0.669l4.328,17.047c0,0,7.217-16.727,7.43-17.234
		C189.635,6.356,189.807,6.333,190.036,6.333 M190.036,5.18c-0.779,0-1.32,0.389-1.658,1.188c-0.152,0.362-3.982,9.247-6.08,14.112
		l-3.473-13.676c-0.096-0.699-0.691-1.624-2.074-1.624h-12.533c-2.654,0-2.904,1.621-3.104,2.924l-0.016,0.113
		c-0.32,2.086,0.621,3.036,2.357,3.972c0.098,0.051,0.156,0.197,0.186,0.283c-0.527,6.068-2.949,33.975-3.09,35.236
		c-0.055,0.495-0.102,0.623-0.115,0.651c-0.018,0.003-0.213,0.116-0.369,0.207c-0.162,0.093-0.352,0.202-0.57,0.339
		c-1.779,1.11-1.896,2.604-1.801,3.78c0.078,0.963,0.676,2.109,3.072,2.111l0.373-0.006l0.289-0.002h6.855
		c2.352,0,2.789-2.08,2.934-2.762c0.199-0.949,0.076-2.314-1.646-3.43c-0.176-0.115-0.34-0.215-0.488-0.303
		c-0.17-0.103-0.385-0.23-0.438-0.287c0.006,0-0.037-0.15,0.006-0.625c0.088-0.998,0.846-9.795,1.393-16.176l3.076,11.764
		c0.221,0.709,0.822,1.37,1.703,1.369h3.127h0.1c1.121,0.001,1.508-0.934,1.715-1.435c0.188-0.45,2.955-6.87,5.186-12.04
		c-0.531,6.146-1.229,14.188-1.309,15.074c-0.018,0.199-0.031,0.395-0.045,0.585c-0.094,1.389-0.193,1.463-0.641,1.589
		c-2.123,0.597-2.572,1.686-2.605,3.25l-0.012,0.338c-0.031,0.746-0.068,1.68,0.604,2.379c0.465,0.482,1.137,0.719,2.059,0.719
		h16.434c2.143,0,2.301-1.941,2.367-2.77l0.012-0.168l0.021-0.223c0.086-0.904,0.23-2.416-1.455-3.259
		c-0.178-0.089-0.342-0.165-0.494-0.233c-0.154-0.071-0.355-0.163-0.449-0.222c-0.008-0.053-0.014-0.158,0-0.347
		c0.021-0.263,2.816-33.428,2.936-34.576c0.074-0.699,0.129-0.778,0.711-1.055c0.127-0.059,0.248-0.113,0.367-0.166
		c0.893-0.395,2.006-0.885,2.283-2.764c0.158-1.057,0.264-2.252-0.449-3.08c-0.434-0.502-1.062-0.756-1.869-0.756H190.11
		L190.036,5.18z"/>
	<path display="none" fill="#0779BE" d="M204.622,53.632c-0.963,0-2.238,0.189-2.238-1.041s0.521-2.299,1.857-2.832
		c1.336-0.535,1.602-0.482,1.764-1.924c0.139-1.25,2.482-28.225,3.107-35.438c0,0,0.426-1.174-1.18-1.814
		c-1.602-0.641-1.869-1.068-1.654-2.459c0.213-1.389,0.213-1.789,1.924-1.789h22.928c1.656,0,1.924,0.026,2.459,2.003
		c0.533,1.978,1.121,6.413,1.229,7.054c0.107,0.644-0.055,1.339-1.123,1.339l-2.352-0.001c-0.641,0-1.389,0.213-1.977-1.549
		c-0.588-1.765-2.031-5.238-3.529-5.238h-1.869c-0.428,0-0.855,0.215-0.855,1.389c0,1.176-1.229,14.752-1.229,14.752
		s-0.16,0.533,0.695,0.535c0.854-0.002,1.975-0.055,2.512-0.055c0.801,0,1.016-0.534,1.496-1.871
		c0.48-1.336,0.695-1.871,0.855-2.191s0.213-0.588,1.336-0.589l2.352,0.001c0.854,0.002,1.068,0.16,1.016,0.855
		s-0.75,10.154-0.803,10.796c-0.053,0.641-0.32,1.229-0.961,1.229h-2.834c-0.746-0.001-0.961-0.32-1.121-1.068
		c-0.16-0.75-0.215-1.496-0.375-2.031c-0.16-0.534-0.428-1.391-1.656-1.391h-2.406c-0.266,0-0.48,0.16-0.48,0.643
		c0,0.48-1.604,19.081-1.604,19.081s0.375,0.266,0.91,0.266c0.533,0,2.885,0.268,3.9-1.498c1.016-1.763,2.619-4.862,2.939-5.45
		s1.496-1.229,3.047-1.229c1.549,0,2.617,0,2.191,1.603c-0.428,1.604-2.459,8.365-2.672,9.14c-0.215,0.773-0.75,0.773-1.443,0.773
		H204.622z"/>
	<path fill="#FFFFFF" d="M231.129,6.335c1.656,0,1.924,0.026,2.459,2.003c0.533,1.978,1.121,6.414,1.229,7.056
		s-0.055,1.336-1.123,1.337l-2.352-0.001c-0.125,0-0.254,0.009-0.385,0.008c-0.543,0.001-1.119-0.139-1.592-1.557
		c-0.588-1.765-2.031-5.238-3.529-5.238h-1.869c-0.428-0.001-0.855,0.215-0.855,1.389c0,1.176-1.229,14.752-1.229,14.752
		s-0.16,0.533,0.693,0.533c0.855,0,1.977-0.053,2.514-0.053c0.801,0,1.016-0.534,1.496-1.871c0.48-1.336,0.695-1.871,0.855-2.191
		s0.213-0.588,1.336-0.588h2.352c0.854,0.002,1.068,0.16,1.016,0.855c-0.055,0.695-0.75,10.154-0.803,10.796
		c-0.053,0.641-0.32,1.229-0.961,1.229h-2.834c-0.746-0.001-0.961-0.32-1.121-1.068c-0.16-0.75-0.215-1.496-0.375-2.031
		c-0.16-0.534-0.428-1.391-1.656-1.391h-2.406c-0.266,0-0.48,0.162-0.48,0.643s-1.604,19.081-1.604,19.081s0.375,0.266,0.91,0.266
		c0.123,0.002,0.346,0.014,0.627,0.016c0.928-0.002,2.494-0.158,3.275-1.512c1.014-1.764,2.617-4.863,2.938-5.451
		s1.496-1.229,3.047-1.229c1.549,0,2.617,0,2.191,1.603c-0.428,1.604-2.459,8.365-2.672,9.14c-0.215,0.773-0.75,0.773-1.443,0.775
		l-24.156-0.002c-0.225,0-0.467,0.012-0.705,0.012c-0.783,0-1.533-0.109-1.533-1.053c0-1.229,0.521-2.299,1.857-2.834
		c1.336-0.533,1.604-0.48,1.764-1.922c0.139-1.25,2.48-28.225,3.107-35.438c0,0,0.426-1.174-1.178-1.813
		c-1.604-0.642-1.871-1.069-1.656-2.46c0.213-1.389,0.213-1.789,1.924-1.789H231.129 M231.129,5.181l-22.928-0.002
		c-2.459,0.002-2.803,1.043-3.045,2.631l-0.021,0.14c-0.336,2.183,0.574,2.987,2.369,3.706c0.41,0.162,0.523,0.348,0.523,0.348
		l-0.053,0.145l-0.014,0.15c-0.494,5.689-2.963,34.137-3.104,35.409c-0.041,0.37-0.08,0.529-0.104,0.596
		c-0.102,0.058-0.34,0.148-0.553,0.231l-0.389,0.152c-1.666,0.667-2.586,2.053-2.584,3.905c0,0.822,0.35,2.207,2.688,2.207
		c0.131,0,0.26-0.002,0.389-0.006c0.107-0.002,0.213-0.004,0.316-0.006l24.156,0.002c0.684,0,2.107,0,2.555-1.623
		c0.078-0.281,0.398-1.361,0.793-2.695c0.717-2.417,1.607-5.422,1.883-6.454c0.09-0.336,0.361-1.358-0.266-2.178
		c-0.678-0.877-1.826-0.877-3.041-0.877c-1.803-0.001-3.473,0.752-4.061,1.83c-0.086,0.156-0.26,0.487-0.488,0.923
		c-0.635,1.204-1.697,3.222-2.438,4.506c-0.361,0.627-1.105,0.933-2.273,0.933c-0.111,0-0.215-0.002-0.303-0.006
		c0.402-4.667,1.309-15.215,1.49-17.689h1.766c0.338,0.001,0.389,0.021,0.551,0.567c0.068,0.225,0.119,0.559,0.172,0.916
		c0.051,0.329,0.105,0.677,0.18,1.024c0.117,0.542,0.424,1.981,2.252,1.98l2.832,0.001c1.168-0.001,1.996-0.898,2.111-2.288
		c0.033-0.398,0.314-4.196,0.535-7.188c0.135-1.826,0.248-3.352,0.268-3.613c0.021-0.269,0.074-0.977-0.432-1.523
		c-0.467-0.507-1.109-0.576-1.734-0.576l-2.354,0.001c-1.275-0.001-1.934,0.33-2.346,1.179c-0.219,0.441-0.455,1.047-0.93,2.362
		c-0.131,0.365-0.322,0.894-0.447,1.106c-0.273,0.004-0.607,0.012-0.977,0.025c-0.312,0.008-0.652,0.018-0.977,0.024
		c0.27-3.024,1.166-13.053,1.166-14.126c0-0.094,0.004-0.172,0.01-0.235l1.561,0.001c0.422,0.117,1.527,1.732,2.434,4.447
		c0.533,1.602,1.387,2.348,2.688,2.348c0.078,0,0.156-0.002,0.232-0.004l0.152-0.004h2.352c0.98,0,1.529-0.406,1.818-0.747
		c0.291-0.343,0.605-0.96,0.441-1.933c-0.018-0.117-0.055-0.367-0.104-0.707c-0.227-1.555-0.697-4.79-1.148-6.459
		C234.032,5.556,233.297,5.181,231.129,5.181"/>
	<path display="none" fill="#0779BE" d="M123.417,49.498c-0.502-0.348-0.617-0.694-0.5-1.811c0.115-1.118,0.5-4.356,0.461-8.866
		c-0.039-4.511-4.549-6.515-8.905-7.594c5.706-1.812,11.913-4.395,11.911-12.797c0-8.403-9.135-12.096-13.721-12.096H91.809
		c-2.275,0-2.463,1.456-2.463,2.573c0,1.119,0.072,1.389,1.537,1.891c1.465,0.5,1.197,1.513,1.197,1.513
		c-0.613,7.081-2.975,34.269-3.115,35.524c-0.16,1.444-0.428,1.389-1.764,1.924c-1.336,0.533-1.443,1.604-1.443,2.832
		s0.863,1.041,1.824,1.041h15.635c1.604,0.002,1.658-1.193,1.658-2.477s-0.305-1.557-1.051-1.932
		c-0.748-0.375-0.855-1.229-0.803-1.978c0.023-0.315,0.572-6.771,1.207-14.172c0,0,0.684-0.075,2.766-0.075
		c2.775,0.001,2.969,2.698,2.969,2.698s-0.924,11.604-0.965,14.148c-0.037,2.543,2.506,3.797,3.508,3.799l10.563-0.002
		c0.887,0,1.311-0.367,1.502-1.908C124.766,50.191,123.917,49.845,123.417,49.498 M110.637,25.948
		c-0.506,1.711-1.523,3.341-3.42,3.34c-1.896,0-2.525,0-2.525-0.688c0-0.4,0.041-0.835,0.041-0.835s1.361-15.899,1.416-16.728
		c0.053-0.828,0.186-1.096,0.883-1.096c0.693-0.001,4.676-0.455,4.756,2.886C111.865,16.168,111.145,24.238,110.637,25.948"/>
	<path fill="#FFFFFF" d="M112.662,6.334c4.586,0.001,13.723,3.692,13.723,12.096c0,8.401-6.207,10.985-11.913,12.796
		c4.357,1.08,8.868,3.085,8.905,7.595c0.039,4.51-0.348,7.747-0.463,8.865s0,1.464,0.502,1.812s1.35,0.693,1.156,2.236
		c-0.191,1.541-0.617,1.91-1.504,1.908h-10.561c-1.002,0.002-3.547-1.254-3.508-3.797c0.039-2.545,0.963-14.147,0.963-14.147
		S109.77,33,106.996,33c-2.084,0.001-2.768,0.073-2.768,0.073c-0.635,7.402-1.186,13.857-1.207,14.173
		c-0.053,0.749,0.053,1.604,0.803,1.978c0.748,0.375,1.051,0.648,1.051,1.932s-0.055,2.477-1.658,2.477l-15.635,0.002
		c-0.225-0.002-0.441,0.008-0.646,0.01c-0.67,0-1.176-0.109-1.178-1.053c0.002-1.23,0.107-2.299,1.445-2.834
		c1.336-0.533,1.602-0.48,1.762-1.922c0.141-1.255,2.502-28.443,3.115-35.524c0,0,0.268-1.013-1.197-1.513
		c-1.465-0.502-1.537-0.771-1.537-1.891c0-1.117,0.188-2.572,2.463-2.572L112.662,6.334 M107.217,29.288
		c1.896,0.001,2.914-1.629,3.42-3.34c0.51-1.71,1.23-9.779,1.15-13.12c-0.064-2.627-2.537-2.907-3.932-2.907
		c-0.377,0-0.678,0.021-0.826,0.021c-0.693,0-0.828,0.269-0.881,1.097c-0.055,0.828-1.416,16.728-1.416,16.728
		s-0.041,0.435-0.041,0.835C104.691,29.289,105.32,29.29,107.217,29.288 M112.662,5.181L91.809,5.18
		c-1.65,0-3.617,0.647-3.617,3.728c-0.002,1.719,0.498,2.359,2.318,2.982c-0.006-0.002-0.008-0.002-0.008-0.002
		c-0.004,0,0.137,0.054,0.166,0.064c0.021,0.012,0.088,0.044,0.111,0.057c0.014,0.012,0.129,0.093,0.135,0.094
		c0,0,0-0.002-0.004-0.006c0.004,0.003,0.008,0.004,0.012,0.006c0.018,0,0.027-0.029,0.035-0.059l-0.018,0.068l-0.01,0.1
		c-1.434,16.521-3.004,34.522-3.111,35.495c-0.041,0.369-0.08,0.53-0.102,0.595c-0.104,0.059-0.342,0.149-0.555,0.232l-0.389,0.152
		c-2.17,0.868-2.17,2.842-2.17,3.905c0,0.824,0.303,2.207,2.332,2.207c0.107,0,0.221-0.002,0.336-0.006
		c0.102-0.002,0.205-0.006,0.311-0.006l15.637,0.002c2.811-0.002,2.812-2.547,2.811-3.633c0-1.783-0.594-2.415-1.689-2.964
		c-0.162-0.081-0.193-0.499-0.168-0.862c0.02-0.271,0.498-5.877,1.121-13.154c0.408-0.011,0.965-0.021,1.703-0.021
		c1.506-0.001,1.766,1.213,1.809,1.554c-0.098,1.223-0.922,11.666-0.959,14.118c-0.02,1.283,0.459,2.457,1.387,3.398
		c1.064,1.082,2.443,1.574,3.275,1.574h10.561c2.283-0.002,2.541-2.049,2.648-2.922c0.262-2.098-0.932-2.867-1.504-3.237
		l-0.139-0.091c-0.014-0.011-0.027-0.019-0.039-0.026c-0.01-0.08-0.018-0.271,0.027-0.717l0.029-0.279
		c0.143-1.34,0.477-4.474,0.439-8.717c-0.035-4.279-3.434-6.488-6.36-7.65c4.325-1.744,9.366-5.033,9.368-12.73
		C127.54,9.18,117.686,5.18,112.662,5.181 M107.301,11.089c0.004,0,0.006-0.001,0.008-0.001c0.146-0.005,0.332-0.012,0.549-0.013
		c2.732,0.001,2.762,1.203,2.775,1.781c0.08,3.367-0.654,11.253-1.102,12.764c-0.496,1.669-1.275,2.514-2.314,2.514
		c-0.496,0-1.004,0-1.354-0.018c0.008-0.139,0.018-0.238,0.02-0.245c0.055-0.657,1.363-15.929,1.418-16.759
		C107.301,11.104,107.301,11.097,107.301,11.089"/>
	<g>
		<path fill="#FFFFFF" d="M78.17,69.373c-2.139,0-3.1,0.686-3.1,2.342v9.311l3.688-0.002c2.084,0.002,2.832-1.496,2.832-6.199
			S80.307,69.373,78.17,69.373z"/>
		<path fill="#FFFFFF" d="M194.28,74.958c-0.348-0.748-0.643-0.723-0.855-0.107c-0.215,0.615-2.566,6.439-2.834,6.92
			c-0.266,0.482-0.105,0.723,0.428,0.723h2.994h3.152c0.562,0,0.855-0.268,0.428-1.043C197.592,81.451,194.625,75.707,194.28,74.958
			z"/>
		<path fill="#FFFFFF" d="M218.614,61.623H43.004c-10.213,0-18.492,8.279-18.492,18.492c-0.002,10.213,8.279,18.492,18.492,18.492
			h175.61c10.213,0,18.492-8.279,18.492-18.492S228.827,61.625,218.614,61.623z M80.682,82.173l-5.611-0.002v7.377
			c0,1.203,1.533,1.797,2.244,1.924c0.902,0.16,1.844,0.141,1.844,0.141v0.66H58.234v-0.66c0,0,0.881,0.02,2.406-0.301
			c1.523-0.32,1.441-1.604,1.441-1.604V71.992c0-1.121-0.16-1.844-1.523-2.244c-1.361-0.402-2.324-0.562-2.324-0.562v-0.881
			l19.4-0.002c1.443,0.002,16.996-0.801,16.996,6.734C94.631,82.574,82.605,82.171,80.682,82.173z M116.105,68.941
			c0,0-0.881-0.021-2.406,0.301c-1.521,0.32-1.682,1.602-1.682,1.602V89.55c0,1.201,1.533,1.795,2.244,1.922
			c0.902,0.16,1.844,0.141,1.844,0.141v0.662H95.182l0.002-0.662c0,0,0.881,0.02,2.404-0.301c1.523-0.322,1.443-1.604,1.443-1.604
			l-0.002-18.703c0.002-1.203-1.293-1.799-2.004-1.926c-0.902-0.16-1.844-0.139-1.844-0.139v-0.662h20.924V68.941z M148.557,82.093
			c-0.535,2.457-2.459,10.367-2.779,11.65s-1.338,0.164-1.871-0.215c-0.975-0.693-2.918-1.254-5.396-1.254l-19.776-0.002
			c-1.176,0.002-1.121-0.721-0.643-1.469c0.482-0.748,13.629-20.096,13.95-20.469c0.322-0.375,0.748-1.176-0.158-1.178
			c-0.91,0.002-5.398,0.428-8.178,3.207s-3.85,4.598-4.383,4.598c-0.536,0-0.32-0.963-0.32-0.963s2.404-8.016,2.617-8.764
			c0.215-0.748,0.322-1.283,1.018-0.748c0.693,0.533,1.922,1.816,5.664,1.816h17.477c0.908,0,1.604-0.055,0.855,1.229
			s-13.949,21.699-13.949,21.699h1.977c1.926,0,5.773-0.695,9.406-5.238C147.702,81.451,149.092,79.634,148.557,82.093z
			 M175.653,93.529c-0.975-0.693-2.918-1.256-5.398-1.256h-19.773c-1.176,0.002-1.123-0.721-0.641-1.469
			c0.48-0.748,13.627-20.096,13.947-20.469c0.32-0.375,0.75-1.176-0.16-1.176c-0.908,0-5.396,0.426-8.176,3.207
			c-2.779,2.777-3.848,4.596-4.383,4.596c-0.533,0-0.32-0.963-0.32-0.963s2.404-8.016,2.619-8.764
			c0.213-0.748,0.32-1.283,1.016-0.75c0.693,0.535,1.924,1.818,5.664,1.818h17.477c0.908,0,1.604-0.055,0.855,1.229
			S164.43,91.232,164.43,91.232h1.977c1.926,0,5.771-0.695,9.406-5.238c3.635-4.541,5.025-6.361,4.49-3.9
			c-0.535,2.457-2.459,10.367-2.779,11.65S176.184,93.91,175.653,93.529z M217.768,92.273h-20.643c-0.441,0.002-0.602-0.76,0-0.881
			s4.289-0.682,3.527-2.846c-0.762-2.166-2.406-5.371-2.406-5.371h-8.297c0,0-0.32,2.203-0.32,2.965s0.521,3.088,1.764,3.928
			c1.242,0.842,2.205,1.244,2.564,1.244c0.361,0,0.602,0.158,0.602,0.4c0.002,0.24-0.08,0.562-0.801,0.562l-14.432-0.002
			c0,0-0.52-0.199-0.52-0.52c0-0.322,0.439-0.402,1.082-0.441c0.641-0.039,3.125-1.043,5.33-4.008
			c2.205-2.967,4.33-6.215,6.213-10.822c1.363-2.928,2.205-3.527,0.682-4.41c-1.521-0.883-2.164-1.143-2.324-1.283
			s-0.32-0.359,1.443-0.561s5.531-0.762,8.297-1.924c2.766-1.164,3.566-2.164,4.41-0.561l0.842,1.602c0,0,8.176,17.477,9.859,19.803
			c1.684,2.324,2.885,2.164,2.885,2.164s0.924,0,0.924,0.48C218.448,92.273,218.409,92.273,217.768,92.273z"/>
	</g>
	<path display="none" fill="#E02027" d="M2.592,86.101c-0.041,0.16,0.041,0.561,0,1.562c-0.039,1.002,0.258,1.604-0.012,1.645
		c-0.27,0.039-0.389,0-0.309,1.121c0.08,1.123-0.242,1.885,0.199,2.045s0.361,0.08,0.443,0.482c0.078,0.4,0.318,0.359,0.398,0.52
		c0.082,0.16,0.322,0,0.482-0.281c0.16-0.279,0.359-0.561,0.602-0.641c0.24-0.08,0.24-0.521,0.439-0.723
		c0.201-0.201,0.402-0.119,0.441-0.6S5.6,90.671,5.799,90.47C6,90.271,6,89.974,6.08,89.82c0.08-0.152,0.361-0.111,0.441-0.674
		c0.08-0.561,0.279-0.24,0.76-0.6c0.48-0.361,0.121-0.883,0.441-1.443c0.322-0.561,0.643-0.641,0.762-1.002
		c0.121-0.361,0.441-0.32,0.602-0.361c0.16-0.039,0.4-0.039,0.4-0.6c0-0.562,0.361-1.484,0.602-1.805s0.803-0.842,0.842-1.002
		c0.041-0.16,0.24-0.361,0.48-0.4c0.242-0.041,0.281-0.162,0.602-0.482c0.322-0.32,0.521-0.32,0.762-0.641s-0.119-0.521,0-0.883
		c0.121-0.359,0.121-0.561,0.521-0.762c0.4-0.199-0.16-0.359,0.32-0.721s0.602-0.641,0.842-1.162s0.521-1.203,0.803-1.322
		c0.279-0.121,0.359-0.32,0.48-0.842c0.119-0.521,0.119-0.762,0.441-1.002c0.32-0.24,0.6-0.32,0.602-0.521
		c-0.002-0.201-0.002-0.602,0.48-0.881c0.48-0.281,0.641-0.361,0.721-1.084c0.08-0.721,0.24-1.283,0.361-1.562
		c0.119-0.281,0.641-0.762,0.801-1.082s0.602-0.723,0.803-1.484c0.199-0.76,0.561-1.041,1.281-1.764
		c0.723-0.721,0.723-0.881,0.922-1.242c0.201-0.359,0.521-0.762,0.723-1.002c0.199-0.24,0.32-0.281,0.561-0.643
		c0.24-0.359,0.281-0.762,0.561-0.842c0.281-0.078,0.643-0.559,0.723,0.281c0.08,0.842,0.4,0.441,0.48,1.002
		c0.08,0.562,0.32,0.924,0.561,1.363c0.242,0.441,0.482,0.322,0.562,1.004s0.361,1,0.721,1.041c0.361,0.041,0.32,0.16,0.562,0.641
		c0.24,0.48,0.641,0.32,0.68,0.643c0.041,0.32,0.162,0.963,0.361,1.441c0.201,0.482,0.281,0.684,0.721,1.162
		c0.441,0.482,0.723,1.164,1.283,1.443c0.562,0.281,0.4,0.604,0.602,1.082c0.201,0.482,0.723,1.084,1.162,1.766
		c0.441,0.682,0.48,0.92,1.123,1.002c0.641,0.08,0.723-0.24,0.762,0.682c0.041,0.922-0.121,1.082,0.482,1.723
		c0.6,0.641,1.119,1.043,1.242,1.482c0.119,0.441,0.439,1.043,1,1.322c0.562,0.281,1.084,0.764,1.363,1.123
		c0.281,0.361,0.562,0.521,1.363,0.521s1.242-0.279,1.764,0.4c0.521,0.682,0.721,0.803,1.322,0.922
		c0.602,0.121,0.643,0.041,1.203-0.199s0.641-0.041,0.842-0.361c0.199-0.322,0.24-0.16,0.881-0.24
		c0.643-0.08,0.762-0.482,1.002-0.643s0.643-0.24,0.201-0.961c-0.441-0.723-1.523-2.045-2.164-3.207s-1.482-2.605-1.844-2.885
		c-0.361-0.281-0.842-1.564-1.082-1.725s-0.361-1.363-0.922-2.205c-0.561-0.84-0.641-1.482-1.082-1.443
		c-0.441,0.041-0.281-0.881-0.684-1.602c-0.398-0.723-0.881-1.283-1.121-1.965s-0.361-1.123-0.881-1.684
		c-0.521-0.561-0.48-0.721-0.562-1.162c-0.08-0.441-0.16-0.842-0.439-1.004c-0.281-0.16-0.24-0.898-0.521-0.969
		c-0.281-0.072-0.201-0.514-0.402-0.873c-0.199-0.361-0.52-0.361-0.881-1.203s-0.441-1.643-0.762-2.285
		c-0.32-0.641-0.762-1.723-1.043-2.564c-0.279-0.842-0.602-1.523-0.602-1.764s-0.279-0.361-0.281-0.762
		c0.002-0.4-0.039-0.922,0.322-1.363s1.242-2.165,1.684-2.565c0.439-0.4,0.482-0.963,1.002-1.564
		c0.521-0.602,0.322-0.922,0.922-1.521c0.602-0.602,0.721-0.924,0.721-1.123c0.002-0.201,0.162-0.322,0.361-0.361
		c0.201-0.039,0.602-0.361,0.803-0.562c0.199-0.2,0.199-0.562,0.561-0.842c0.361-0.278,0.201-0.601,0.602-1.282
		s1.043-1.484,1.402-2.004c0.361-0.521,0.643-0.641,0.723-1.002s0.4-0.521,0.52-1.003c0.121-0.481,0.602-0.4,0.723-0.882
		c0.119-0.48,0.441-0.44,0.801-1.242c0.361-0.801,0.682-0.762,1.002-0.922s0.441-0.842,1.002-1.122
		c0.561-0.281,0.16-0.602,0.361-0.882c0.201-0.281,0.24-0.602,0.48-1.002c0.24-0.401,0.08-0.602,0.562-0.842
		c0.48-0.24,1.201-0.963,1.361-1.523s0.643-0.682,0.883-1.123s0.359-0.801,0.883-1.041c0.52-0.242,1.121-1.123,1.521-1.684
		c0.4-0.562,0.602-0.723,0.922-0.963c0.322-0.24,0.4-0.48,0.602-0.881c0.201-0.402,0.361-1.244,0.762-1.443
		c0.4-0.201,0.48-0.24,0.641-0.801c0.16-0.562,0.32-0.442,0.723-0.922c0.4-0.482,0.521-0.804,0.359-1.244
		c-0.16-0.439,2.004-2.926,2.365-4.289s1.043-3.006,0.963-3.567c-0.08-0.561-0.16-2.444-0.32-2.805
		c-0.16-0.362-0.602-1.043-0.883-2.045c-0.279-1.001-0.24-1.523-0.52-1.644c-0.281-0.119-0.322-0.079-0.441-0.682
		c-0.121-0.602-0.562-0.361-0.803-0.881c-0.24-0.521-0.762-0.482-0.963-0.481c-0.199-0.001-0.48,0.2-0.68,0.28
		c-0.201,0.08-0.721-0.039-0.922,0.4c-0.201,0.441-0.641,0.643-0.963,0.922c-0.32,0.281-0.201,0.522-0.682,0.561
		c-0.479,0.041-0.24,0.282-0.721,0.402c-0.48,0.121-0.281,0.44-0.561,0.562c-0.281,0.12-0.844,0.28-0.764,0.44
		c0.082,0.16-0.158,0.361-0.48,0.321c-0.32-0.042-0.359,0.521-0.641,0.601s-0.721,0.642-0.762,0.962
		c-0.039,0.32-0.441,0.28-0.801,0.521c-0.361,0.24-0.602-0.4-0.963,0.321s-0.439,0.04-0.721,0.479
		c-0.281,0.442-0.883,1.244-1.443,1.686s-0.762,0.48-0.842,0.801c-0.08,0.321-0.24,0.08-0.48,0.16
		c-0.242,0.081-0.521,0.401-0.723,0.682c-0.199,0.28-0.68,0.562-0.842,1.002c-0.16,0.441-0.682,0.481-0.721,0.803
		c-0.039,0.32-0.602,0.641-0.762,1.002c-0.16,0.359-0.562,0.641-0.682,1.121c-0.119,0.481-0.4,0.562-0.16,1.163
		c0.24,0.601,0.482,1.122,0.762,1.122c0.281,0,0.4,0.121,0.4,0.441s0.201,0,0.4,0.199c0.201,0.201,0.402,0.201,0.883-0.039
		s1.082-0.641,1.281-1.041c0.201-0.402,0.041-0.643,0.643-0.603s0.521-0.08,0.521,0.44c0,0.521-0.201,0.16-0.361,0.883
		c-0.16,0.721-0.721,0.602-0.801,1.082c-0.08,0.482-0.16,0.922-0.361,1.162c-0.201,0.241-0.48,0.36-0.682,1.043
		c-0.199,0.68-0.521,0.721-0.762,1.281c-0.24,0.562-0.439,0.4-0.521,0.842c-0.08,0.441-0.121,0.682-0.359,0.763
		c-0.24,0.08-0.08,0.44-0.162,0.56c-0.078,0.121-0.361,0.121-0.6,0.521c-0.24,0.402-0.842,0.643-1.123,1.203
		c-0.281,0.562-0.482,0.361-0.801,1.322c-0.322,0.963-0.682,0.842-0.723,1.284c-0.039,0.44-0.039,0.681-0.121,1.041
		c-0.078,0.36-0.199,0.521-0.6,0.682s-0.482,0.602-0.641,1.043c-0.162,0.44-0.441,0.28-0.443,1.001c0,0.723-0.4,0.082-0.682,1.042
		c-0.279,0.963-0.561,0.201-1.041,0.963s-0.602,0.642-0.762,1.202s-0.48,0.32-0.801,1.042c-0.322,0.722-0.562,0.962-0.803,1.122
		c-0.24,0.162-0.08,0.602-0.279,0.963c-0.201,0.36-0.441,0.361-0.562,0.762c-0.119,0.4-0.32,0.601-0.602,0.881
		c-0.279,0.281-0.24,0.121-0.32,0.481s-0.24,0.241-0.4,0.28c-0.16,0.041-0.16-0.039-0.32-0.602c-0.16-0.561-0.16-1.121-0.361-1.482
		c-0.199-0.361-0.441-0.521-0.521-1.323c-0.08-0.801-0.439-1.443-0.721-2.325c-0.281-0.881-0.4-1.402-0.602-1.362
		s-0.16-0.841-0.199-1.282c-0.041-0.441-0.361-0.681-0.361-1.082c0-0.4-0.041-0.963-0.242-1.965c-0.199-1.001-0.359-0.842-0.6-2.364
		c-0.24-1.523-0.281-1.563-0.643-1.685c-0.359-0.119-0.48-0.521-0.32-0.841c0.16-0.32-0.16-0.761-0.32-1.003
		c-0.16-0.24-0.361-0.76-0.201-0.841c0.16-0.08,0.441-0.44,0.16-0.761c-0.279-0.322-0.16-0.963-0.16-1.283
		c0-0.322-0.52-0.521-0.439-1.162c0.08-0.643,0.279-1.283,0.08-1.604c-0.201-0.322-0.281-0.562-0.24-2.126
		c0.039-1.562-0.082-1.763,0.199-2.084c0.281-0.319,0.803-0.561,0.641-1.002c-0.16-0.44-0.158-1.763,0-2.564
		c0.162-0.803,0.242-0.882,0.002-1.444c-0.242-0.56-0.002-0.961-0.201-1.242c-0.201-0.28-0.24-0.721-0.48-1.241
		c-0.24-0.521-0.521-0.603-0.521-1.003c0-0.401-0.121-0.802-0.521-0.962c-0.4-0.161-0.883-0.441-1.082-0.401
		c-0.201,0.041-0.121-0.561-0.361-0.721c-0.24-0.162,0.041-0.803-0.439-1.043c-0.482-0.24-0.361-0.761-1.123-0.48
		s-0.961,0.441-1.363,0.602C15.9,3.89,15.9,4.29,15.34,4.33s-0.965,0-1.283,0.36c-0.32,0.361-0.643,0.803-1.201,0.883
		c-0.562,0.08-0.643,0.24-0.684,0.762c-0.039,0.521-0.32,0.881-0.641,1.482c-0.322,0.602-0.643,0.762-0.801,1.123
		C10.568,9.3,10.207,8.9,10.207,9.661c0,0.762-0.199,0.922-0.721,1.644s-1.121,1.803-1.242,2.204
		c-0.119,0.401-0.24,1.002-0.281,1.324c-0.041,0.32-0.119,1.002,0,1.322c0.121,0.32,0.242,0.682,0.162,1.242
		c-0.082,0.561,0.279,0.24,0.279,1.203c0,0.961-0.199,1.604,0,1.803c0.201,0.201,0.08,0.4,0.602,0.643
		c0.521,0.24,0.24,0.4,0.24,0.881s0.32,0.521,0.482,1.082c0.16,0.562,0.039,1.562,0.158,2.125c0.121,0.561,0.402,1.283,0.482,2.004
		c0.08,0.722,0.361,1.283,0.561,1.963c0.201,0.683,0.16,0.963,0.562,1.244c0.4,0.28,0.439,0.32,0.479,0.882
		c0.041,0.561,0.162,1.362,0.322,2.124s0.561,2.285,0.803,2.726c0.24,0.44,0.641,1.403,0.801,2.084
		c0.16,0.683,0.641,0.441,0.682,1.403c0.039,0.963,0.318,1.123,0.441,1.402c0.119,0.281,0.561,0.842,0.801,1.563
		s0.361,1.565,0.6,2.364c0.242,0.803,0.443,1.084,0.723,2.166c0.281,1.082,0.762,1.523,0.842,2.165
		c0.08,0.643,0.24,1.082,0.561,1.242s0.242,0.682,0.682,1.043c0.441,0.359,0.201,0.801,0.441,1.121
		c0.24,0.322,0.48,0.521,0.08,1.363s-0.842,1.484-1.283,2.406c-0.439,0.92-0.561,0.6-0.801,1.242
		c-0.24,0.641-0.361,1.082-0.721,1.281c-0.361,0.201-0.883,0.201-0.922,1.004c-0.041,0.801-0.08,0.92-0.562,1.281
		c-0.48,0.361-0.881,0.803-1.604,2.045s-1.082,1.281-1.322,1.885c-0.24,0.6-0.762,0.762-0.641,1.281
		c0.121,0.521,0.201,0.682-0.201,1.002c-0.4,0.32-0.281,0.801-0.883,1.404c-0.602,0.6-0.318,0.6-0.4,0.961
		c-0.078,0.361-0.32,0.041-0.561,0.803s-0.361,0.881-0.844,1.562c-0.479,0.682-0.52,0.602-0.479,1.123s-0.48,0.32-0.803,1.162
		c-0.32,0.842-0.721,1.363-0.881,1.723c-0.16,0.361-0.361,0.682-0.482,0.922c-0.119,0.24-0.24,0.441-0.52,0.521
		c-0.281,0.08-0.121,0.4-0.322,0.883c-0.201,0.48-0.119,0.721-0.398,0.842c-0.283,0.119-0.322,0.119-0.402,0.6
		c-0.08,0.482-0.361,0.24-0.4,0.602c-0.041,0.361-0.361,0.361-0.602,0.803c-0.242,0.439-0.48,0.359-0.16,0.961
		s0.441,0.801,0.119,0.922c-0.32,0.121-0.16,0.441-0.199,0.721c-0.041,0.281-0.322,0.242-0.521,0.604
		c-0.201,0.359-0.562,0.279-0.521,0.68C2.473,85.621,2.592,86.101,2.592,86.101"/>
	<path fill="#FFFFFF" d="M54.396,2.245c0.238,0,0.658,0.03,0.865,0.482c0.24,0.52,0.682,0.28,0.803,0.881
		c0.119,0.602,0.158,0.562,0.439,0.682s0.24,0.642,0.521,1.644s0.723,1.684,0.883,2.045c0.16,0.358,0.24,2.244,0.32,2.806
		c0.08,0.561-0.602,2.205-0.963,3.566c-0.359,1.363-2.525,3.848-2.365,4.289c0.162,0.441,0.041,0.762-0.361,1.242
		c-0.398,0.482-0.561,0.361-0.721,0.924c-0.16,0.561-0.24,0.6-0.641,0.801c-0.402,0.199-0.562,1.043-0.762,1.443
		s-0.281,0.641-0.602,0.881c-0.32,0.241-0.521,0.402-0.922,0.963s-1.002,1.443-1.523,1.682c-0.52,0.242-0.641,0.604-0.881,1.044
		s-0.723,0.562-0.883,1.122s-0.881,1.282-1.361,1.523c-0.482,0.24-0.322,0.44-0.562,0.842c-0.24,0.4-0.279,0.721-0.48,1.002
		C45,32.388,45.402,32.71,44.84,32.989c-0.561,0.281-0.682,0.963-1.002,1.123s-0.641,0.12-1.002,0.922
		c-0.361,0.801-0.682,0.761-0.801,1.242c-0.121,0.482-0.602,0.401-0.723,0.883c-0.119,0.48-0.439,0.641-0.52,1.001
		c-0.082,0.361-0.361,0.481-0.723,1.003c-0.359,0.521-1.002,1.322-1.402,2.004s-0.242,1.002-0.602,1.283
		c-0.361,0.279-0.361,0.642-0.561,0.842c-0.201,0.199-0.602,0.52-0.801,0.561c-0.203,0.041-0.361,0.16-0.361,0.361
		c-0.002,0.199-0.121,0.52-0.723,1.121s-0.4,0.924-0.922,1.523c-0.521,0.602-0.561,1.162-1.002,1.564
		c-0.441,0.4-1.322,2.124-1.684,2.565s-0.32,0.963-0.32,1.363s0.279,0.52,0.279,0.762c0.002,0.24,0.32,0.922,0.602,1.764
		s0.721,1.924,1.043,2.564c0.32,0.641,0.4,1.443,0.762,2.285c0.359,0.842,0.682,0.842,0.883,1.203
		c0.197,0.359,0.119,0.801,0.398,0.871c0.281,0.072,0.242,0.811,0.523,0.971c0.279,0.16,0.359,0.562,0.439,1.004
		c0.08,0.439,0.041,0.6,0.562,1.162c0.52,0.562,0.641,1.002,0.881,1.684s0.721,1.242,1.123,1.963
		c0.393,0.707,0.246,1.605,0.654,1.605c0.008,0,0.018,0,0.025-0.002c0.014,0,0.027,0,0.039,0c0.408,0,0.5,0.627,1.045,1.443
		c0.561,0.842,0.68,2.045,0.922,2.205c0.24,0.16,0.721,1.443,1.082,1.725c0.361,0.279,1.201,1.723,1.844,2.885
		c0.641,1.162,1.723,2.484,2.164,3.207c0.441,0.721,0.039,0.801-0.201,0.963c-0.24,0.158-0.359,0.561-1.002,0.641
		c-0.211,0.025-0.357,0.025-0.467,0.027l-0.004-0.002c-0.215,0.002-0.277,0.002-0.41,0.215c-0.201,0.32-0.281,0.119-0.842,0.361
		c-0.387,0.166-0.527,0.256-0.773,0.254c-0.111,0-0.242-0.018-0.43-0.053c-0.602-0.121-0.801-0.242-1.322-0.924
		c-0.285-0.373-0.547-0.457-0.857-0.457c-0.256,0-0.545,0.057-0.906,0.057c-0.803,0-1.082-0.16-1.363-0.521
		s-0.801-0.842-1.363-1.123c-0.561-0.279-0.881-0.881-1.002-1.322c-0.119-0.439-0.641-0.842-1.242-1.482s-0.439-0.801-0.48-1.723
		c-0.027-0.602-0.07-0.676-0.275-0.674c-0.064-0.002-0.146,0.006-0.248,0.006c-0.07,0-0.148-0.002-0.238-0.014
		c-0.641-0.08-0.682-0.322-1.123-1.002c-0.441-0.682-0.963-1.283-1.162-1.764c-0.201-0.48-0.041-0.803-0.602-1.084
		c-0.561-0.279-0.842-0.961-1.283-1.441c-0.439-0.482-0.521-0.684-0.721-1.162c-0.199-0.482-0.32-1.123-0.361-1.445
		c-0.039-0.32-0.441-0.158-0.68-0.641c-0.242-0.48-0.201-0.602-0.562-0.641s-0.641-0.361-0.721-1.043S26,65.097,25.76,64.656
		s-0.48-0.801-0.561-1.361c-0.08-0.562-0.4-0.16-0.48-1.004c-0.037-0.379-0.129-0.488-0.246-0.488c-0.143,0-0.322,0.164-0.477,0.207
		c-0.279,0.082-0.32,0.482-0.561,0.844c-0.24,0.359-0.361,0.4-0.561,0.641c-0.201,0.24-0.521,0.641-0.723,1.002
		c-0.199,0.361-0.199,0.521-0.922,1.242c-0.721,0.723-1.082,1.004-1.281,1.766c-0.201,0.76-0.643,1.16-0.803,1.482
		c-0.16,0.32-0.682,0.801-0.801,1.082c-0.121,0.281-0.281,0.842-0.361,1.562c-0.08,0.723-0.24,0.803-0.721,1.082
		c-0.48,0.281-0.48,0.682-0.48,0.883s-0.281,0.281-0.602,0.521c-0.322,0.24-0.322,0.48-0.441,1.002
		c-0.121,0.521-0.201,0.721-0.48,0.84c-0.281,0.121-0.562,0.803-0.803,1.324s-0.361,0.801-0.842,1.162s0.08,0.521-0.32,0.723
		c-0.4,0.199-0.4,0.4-0.521,0.762c-0.119,0.359,0.24,0.561,0,0.881s-0.441,0.32-0.762,0.641c-0.32,0.322-0.359,0.441-0.602,0.482
		c-0.24,0.039-0.439,0.24-0.48,0.4c-0.039,0.16-0.602,0.682-0.842,1.002s-0.602,1.242-0.602,1.803c0,0.562-0.24,0.562-0.4,0.602
		c-0.16,0.041-0.48,0-0.6,0.361c-0.121,0.361-0.441,0.441-0.762,1.002c-0.322,0.561,0.039,1.082-0.441,1.443
		c-0.482,0.361-0.684,0.041-0.762,0.6C6.439,89.708,6.16,89.667,6.08,89.82S6,90.269,5.799,90.47
		c-0.201,0.199-0.48,0.281-0.521,0.762c-0.039,0.48-0.24,0.4-0.441,0.602c-0.199,0.199-0.199,0.641-0.439,0.721
		s-0.441,0.361-0.602,0.641C3.678,93.4,3.52,93.541,3.41,93.541c-0.041-0.002-0.074-0.021-0.096-0.064
		c-0.08-0.16-0.322-0.119-0.402-0.521c-0.08-0.4,0-0.32-0.441-0.48s-0.119-0.922-0.199-2.043c-0.08-1.123,0.041-1.084,0.311-1.123
		c0.268-0.039-0.031-0.643,0.01-1.645s-0.041-1.402,0-1.562c0,0-0.121-0.482-0.16-0.883s0.322-0.32,0.521-0.682
		c0.199-0.359,0.482-0.32,0.52-0.6c0.041-0.281-0.119-0.602,0.201-0.723c0.32-0.119,0.201-0.32-0.119-0.922s-0.08-0.521,0.16-0.961
		c0.24-0.441,0.561-0.441,0.6-0.803c0.041-0.359,0.322-0.119,0.402-0.6c0.08-0.482,0.121-0.482,0.402-0.602
		c0.277-0.121,0.199-0.361,0.398-0.842c0.201-0.482,0.041-0.803,0.32-0.883c0.281-0.08,0.4-0.279,0.521-0.521
		c0.121-0.24,0.32-0.561,0.482-0.922c0.16-0.359,0.561-0.881,0.881-1.723s0.842-0.643,0.803-1.162
		c-0.041-0.521-0.002-0.441,0.48-1.123c0.48-0.682,0.602-0.803,0.842-1.562c0.24-0.762,0.48-0.441,0.561-0.803
		c0.082-0.361-0.199-0.359,0.4-0.961c0.604-0.602,0.482-1.082,0.883-1.404c0.4-0.32,0.32-0.48,0.199-1.002
		c-0.119-0.52,0.402-0.682,0.643-1.281c0.24-0.602,0.602-0.643,1.322-1.885c0.723-1.242,1.121-1.684,1.604-2.045
		s0.521-0.48,0.561-1.283c0.041-0.801,0.562-0.801,0.922-1.002c0.361-0.199,0.482-0.641,0.723-1.281
		c0.24-0.643,0.361-0.322,0.801-1.244c0.441-0.92,0.883-1.562,1.283-2.404s0.16-1.041-0.08-1.363c-0.24-0.32,0-0.762-0.441-1.121
		c-0.439-0.361-0.359-0.883-0.68-1.043c-0.322-0.16-0.482-0.6-0.562-1.242c-0.08-0.641-0.561-1.083-0.842-2.165
		c-0.279-1.082-0.48-1.363-0.721-2.166c-0.242-0.801-0.361-1.643-0.602-2.364s-0.682-1.282-0.801-1.563
		c-0.121-0.279-0.402-0.439-0.443-1.402c-0.039-0.961-0.52-0.721-0.68-1.403c-0.16-0.681-0.562-1.643-0.801-2.084
		c-0.242-0.44-0.643-1.964-0.803-2.726s-0.281-1.562-0.32-2.124c-0.041-0.562-0.08-0.602-0.482-0.882
		c-0.4-0.281-0.359-0.562-0.561-1.242c-0.199-0.682-0.48-1.242-0.561-1.965c-0.082-0.721-0.361-1.443-0.48-2.004
		c-0.121-0.562-0.002-1.564-0.162-2.125s-0.48-0.6-0.48-1.082c0-0.481,0.281-0.641-0.242-0.881c-0.518-0.24-0.398-0.441-0.6-0.643
		c-0.199-0.199,0-0.842,0-1.803c0-0.963-0.359-0.643-0.281-1.203c0.08-0.562-0.039-0.922-0.16-1.242
		c-0.121-0.321-0.039-1.003,0-1.323c0.041-0.32,0.16-0.923,0.281-1.323c0.119-0.4,0.723-1.482,1.242-2.204
		c0.521-0.722,0.723-0.882,0.723-1.644s0.361-0.36,0.52-0.722c0.16-0.36,0.482-0.521,0.803-1.122
		c0.32-0.601,0.602-0.962,0.643-1.483c0.037-0.521,0.119-0.681,0.68-0.761s0.881-0.521,1.203-0.883
		c0.32-0.36,0.721-0.32,1.283-0.361C15.9,4.29,15.9,3.89,16.301,3.729c0.4-0.162,0.602-0.321,1.363-0.602
		c0.154-0.057,0.273-0.082,0.367-0.082c0.369,0,0.371,0.371,0.756,0.562c0.48,0.241,0.199,0.883,0.439,1.043
		c0.232,0.155,0.166,0.723,0.344,0.723c0.006,0,0.012,0,0.018-0.002c0.012-0.002,0.027-0.004,0.043-0.004
		c0.221,0,0.664,0.255,1.039,0.404c0.4,0.161,0.521,0.562,0.521,0.963c0,0.4,0.281,0.48,0.521,1.002
		c0.24,0.521,0.279,0.963,0.48,1.242c0.201,0.281-0.041,0.682,0.201,1.243c0.24,0.562,0.16,0.642-0.002,1.442
		c-0.16,0.802-0.16,2.125,0,2.566c0.162,0.44-0.359,0.68-0.641,1.002c-0.279,0.32-0.16,0.52-0.199,2.084
		c-0.041,1.562,0.039,1.803,0.24,2.124c0.199,0.32,0,0.963-0.08,1.604c-0.08,0.641,0.439,0.842,0.439,1.162s-0.119,0.961,0.16,1.283
		c0.281,0.32,0,0.68-0.16,0.76s0.041,0.602,0.201,0.843s0.48,0.681,0.32,1.001c-0.16,0.322-0.039,0.723,0.32,0.842
		c0.361,0.121,0.402,0.16,0.643,1.684s0.4,1.363,0.602,2.366c0.199,1.001,0.24,1.562,0.24,1.964s0.32,0.641,0.361,1.082
		c0.039,0.432,0,1.283,0.186,1.283c0.004,0.001,0.01,0,0.014,0c0.008-0.002,0.014-0.003,0.021-0.003c0.188,0,0.309,0.515,0.58,1.366
		c0.279,0.881,0.641,1.522,0.721,2.324c0.08,0.801,0.32,0.961,0.521,1.322s0.199,0.922,0.361,1.482
		c0.139,0.484,0.156,0.61,0.262,0.61c0.018,0,0.037-0.003,0.059-0.009c0.039-0.01,0.078-0.01,0.117-0.01h0.004
		c0.115,0,0.221,0,0.279-0.27c0.08-0.361,0.041-0.201,0.32-0.482c0.281-0.28,0.48-0.48,0.602-0.882
		c0.121-0.399,0.361-0.399,0.562-0.761c0.199-0.361,0.039-0.802,0.281-0.963c0.238-0.16,0.479-0.4,0.799-1.121
		c0.322-0.723,0.643-0.481,0.803-1.043s0.279-0.441,0.762-1.202c0.482-0.762,0.762,0,1.043-0.962
		c0.279-0.963,0.682-0.321,0.682-1.042c0-0.722,0.279-0.562,0.439-1.003s0.242-0.882,0.641-1.042
		c0.402-0.159,0.523-0.321,0.604-0.682s0.078-0.601,0.119-1.042s0.402-0.32,0.723-1.283c0.32-0.961,0.521-0.762,0.801-1.322
		s0.881-0.801,1.123-1.202c0.24-0.4,0.521-0.401,0.6-0.521c0.08-0.121-0.078-0.481,0.162-0.562c0.24-0.079,0.279-0.32,0.359-0.762
		c0.082-0.441,0.281-0.279,0.521-0.842c0.24-0.561,0.562-0.602,0.762-1.283c0.199-0.68,0.48-0.8,0.682-1.041
		c0.199-0.24,0.279-0.682,0.361-1.162c0.08-0.48,0.641-0.361,0.801-1.082c0.16-0.723,0.361-0.361,0.361-0.883
		c0-0.521,0.08-0.4-0.521-0.439c-0.043-0.004-0.084-0.006-0.121-0.006c-0.459,0-0.334,0.234-0.52,0.605
		c-0.201,0.402-0.803,0.803-1.283,1.043c-0.252,0.126-0.426,0.186-0.566,0.186c-0.125,0-0.221-0.05-0.316-0.146
		c-0.055-0.055-0.111-0.07-0.164-0.07c-0.061,0-0.117,0.023-0.16,0.023c-0.047-0.002-0.076-0.03-0.076-0.152
		c0-0.32-0.119-0.441-0.402-0.441c-0.279,0-0.52-0.52-0.76-1.122c-0.24-0.602,0.041-0.682,0.16-1.163
		c0.121-0.48,0.521-0.761,0.682-1.121c0.16-0.361,0.721-0.682,0.762-1.003c0.041-0.32,0.561-0.36,0.721-0.802
		c0.162-0.441,0.643-0.721,0.842-1.002c0.201-0.28,0.482-0.602,0.723-0.682c0.037-0.014,0.074-0.018,0.109-0.018
		c0.086,0,0.16,0.03,0.221,0.03c0.066,0,0.115-0.033,0.15-0.173c0.08-0.32,0.279-0.36,0.842-0.802
		c0.561-0.44,1.162-1.242,1.443-1.684c0.082-0.129,0.146-0.161,0.207-0.162c0.061,0.001,0.117,0.035,0.182,0.036
		c0.088-0.001,0.186-0.062,0.332-0.355c0.141-0.28,0.264-0.354,0.383-0.354c0.131-0.001,0.258,0.092,0.4,0.091
		c0.055,0.001,0.115-0.015,0.18-0.058c0.359-0.24,0.762-0.199,0.801-0.521c0.041-0.32,0.48-0.882,0.762-0.962
		c0.271-0.077,0.318-0.604,0.609-0.604c0.01,0,0.021,0,0.031,0.002c0.029,0.004,0.057,0.006,0.084,0.006
		c0.277-0.001,0.471-0.18,0.398-0.326c-0.082-0.16,0.48-0.32,0.76-0.441c0.281-0.12,0.08-0.44,0.562-0.561
		c0.48-0.121,0.24-0.361,0.721-0.4c0.482-0.041,0.361-0.281,0.684-0.562c0.318-0.281,0.76-0.48,0.959-0.922
		c0.201-0.44,0.723-0.32,0.924-0.4s0.48-0.281,0.68-0.28C54.328,2.246,54.359,2.245,54.396,2.245 M54.396,0.001L54.383,0
		l-0.068,0.001c-0.6,0-1.076,0.204-1.381,0.359c-1.195,0.184-1.824,0.812-2.158,1.398c-0.02,0.015-0.041,0.029-0.061,0.043
		c-0.16,0.117-0.314,0.232-0.459,0.357c-0.072,0.066-0.141,0.131-0.201,0.193c-0.275,0.105-0.525,0.254-0.748,0.445
		c-0.34,0.146-0.693,0.379-0.99,0.742c-0.275,0.127-0.582,0.305-0.852,0.57c-0.355,0.162-0.715,0.438-1.035,0.881
		c-0.363,0.258-0.68,0.596-0.93,0.961c-0.441,0.045-1.127,0.231-1.699,0.902c-0.418,0.203-0.781,0.529-1.055,0.959
		c-0.232,0.369-0.676,0.92-0.936,1.125c-0.125,0.098-0.227,0.17-0.311,0.23c-0.158,0.113-0.359,0.257-0.561,0.453
		c-0.559,0.242-1.066,0.68-1.547,1.331l-0.066,0.062c-0.244,0.226-0.613,0.568-0.9,1.08c-0.275,0.211-0.637,0.549-0.865,1.061
		c-0.219,0.22-0.51,0.53-0.729,0.967c-0.016,0.021-0.033,0.041-0.049,0.062c-0.225,0.286-0.6,0.761-0.795,1.471
		c-0.197,0.414-0.602,1.326-0.086,2.616c0.203,0.507,0.59,1.472,1.373,2.053c0.312,0.489,0.787,0.824,1.303,0.978
		c-0.014,0.042-0.027,0.084-0.041,0.127l-0.008,0.01c-0.15,0.184-0.396,0.48-0.617,0.941c-0.25,0.267-0.529,0.651-0.68,1.234
		c-0.168,0.199-0.314,0.434-0.416,0.709c-0.125,0.127-0.252,0.277-0.371,0.455c-0.025,0.021-0.053,0.043-0.078,0.064
		c-0.311,0.256-0.82,0.68-1.188,1.369c-0.387,0.416-0.689,0.865-0.967,1.699c-0.008,0.023-0.016,0.043-0.021,0.062
		c-0.248,0.265-0.723,0.813-0.805,1.728l-0.021,0.241c-0.703,0.544-0.99,1.295-1.133,1.716c-0.273,0.338-0.457,0.701-0.559,1.113
		c-0.17,0.193-0.316,0.413-0.441,0.662c-0.404,0.239-0.748,0.586-1.037,1.045c-0.119,0.188-0.184,0.264-0.262,0.361
		c-0.207,0.244-0.418,0.52-0.6,0.959c-0.295,0.268-0.602,0.641-0.855,1.211c-0.057,0.127-0.1,0.211-0.127,0.26
		c-0.027,0.021-0.057,0.045-0.084,0.066c-0.076-0.225-0.156-0.438-0.236-0.641c-0.084-0.218-0.172-0.446-0.252-0.697l-0.119-0.381
		c-0.117-0.379-0.277-0.896-0.562-1.365c-0.006-0.156-0.014-0.301-0.023-0.422c-0.049-0.547-0.227-0.963-0.359-1.23
		c-0.023-0.588-0.113-1.237-0.275-2.053c-0.115-0.578-0.232-0.906-0.326-1.17c-0.086-0.238-0.152-0.426-0.26-1.105
		c-0.172-1.088-0.32-2.025-0.912-2.691c-0.047-0.359-0.162-0.729-0.352-1.107c0.014-0.056,0.027-0.109,0.037-0.165
		c0.117-0.597,0.027-1.204-0.244-1.735c0.01-0.136,0.016-0.26,0.016-0.363c0-0.588-0.197-1.042-0.383-1.354
		c0.109-0.641,0.242-1.553-0.219-2.43c-0.01-0.148-0.018-0.45,0-1.051c0.01-0.414,0.012-0.739,0.008-0.998
		c0.992-1.039,0.973-2.066,0.736-2.803c-0.039-0.283-0.033-1.037,0.055-1.469l0.059-0.284c0.16-0.747,0.244-1.362-0.131-2.319
		c0.008-0.314,0.016-0.986-0.395-1.66c-0.012-0.035-0.021-0.072-0.033-0.107c-0.072-0.238-0.172-0.562-0.344-0.938
		c-0.121-0.256-0.246-0.464-0.355-0.625c-0.166-1.156-0.848-2.063-1.893-2.481c-0.076-0.03-0.156-0.068-0.234-0.104
		c-0.199-0.946-0.699-1.494-1.186-1.816c-0.574-0.648-1.26-0.967-2.053-0.967c-0.369,0-0.742,0.073-1.143,0.219
		c-0.582,0.215-0.92,0.383-1.166,0.504c-0.084,0.043-0.16,0.082-0.256,0.121c-0.342,0.137-0.604,0.312-0.801,0.477
		c-0.623,0.053-1.531,0.227-2.287,1.077l-0.127,0.144c-0.02,0.023-0.039,0.047-0.059,0.071c-1,0.229-2.074,0.891-2.25,2.638
		C9.908,6.125,9.84,6.24,9.789,6.331c-0.074,0.133-0.156,0.273-0.238,0.43c-0.047,0.088-0.082,0.13-0.197,0.261
		c-0.068,0.08-0.152,0.175-0.24,0.288c-0.717,0.47-1.129,1.273-1.148,2.277C7.934,9.628,7.9,9.673,7.865,9.722l-0.197,0.27
		c-0.506,0.698-1.328,2.052-1.574,2.873c-0.164,0.545-0.307,1.277-0.357,1.689c-0.1,0.801-0.154,1.644,0.125,2.389
		c0.016,0.043,0.035,0.087,0.047,0.137c-0.094,0.617-0.012,1.169,0.248,1.672c-0.006,0.23-0.025,0.424-0.043,0.613
		c-0.055,0.59-0.143,1.537,0.467,2.352c0.104,0.2,0.244,0.422,0.451,0.641c0.09,0.653,0.367,1.1,0.539,1.346
		c0.004,0.117,0.008,0.33,0.008,0.484c0.006,0.461,0.012,0.939,0.115,1.418c0.055,0.249,0.131,0.525,0.215,0.816
		c0.098,0.343,0.199,0.695,0.229,0.965c0.084,0.743,0.295,1.346,0.467,1.83c0.059,0.168,0.119,0.338,0.172,0.52
		c0.039,0.127,0.064,0.236,0.086,0.33c0.107,0.443,0.277,1.139,0.912,1.762c0.066,0.597,0.18,1.309,0.322,1.986
		c0.006,0.023,0.512,2.395,1.029,3.338c0.162,0.297,0.479,1.067,0.586,1.523c0.145,0.613,0.414,1.037,0.646,1.316
		c0.088,0.955,0.359,1.512,0.646,1.968c0.092,0.193,0.197,0.366,0.305,0.546c0.143,0.231,0.303,0.495,0.383,0.736
		c0.092,0.275,0.172,0.632,0.258,1.011c0.086,0.394,0.188,0.837,0.322,1.288c0.117,0.394,0.227,0.684,0.338,0.976
		c0.121,0.317,0.227,0.593,0.361,1.108c0.203,0.787,0.488,1.351,0.678,1.721c0.043,0.086,0.086,0.162,0.119,0.238
		c0.064,0.504,0.246,1.637,1.1,2.426c0.109,0.238,0.262,0.516,0.49,0.793c0.037,0.178,0.09,0.381,0.18,0.592
		c-0.111,0.211-0.229,0.418-0.359,0.646c-0.225,0.4-0.48,0.852-0.736,1.389c-0.029,0.059-0.053,0.105-0.072,0.143
		c-0.287,0.291-0.568,0.643-0.809,1.281l-0.09,0.248c-0.006,0.012-0.01,0.025-0.014,0.037c-1.229,0.652-1.596,1.695-1.668,2.535
		c-0.652,0.559-1.178,1.252-1.873,2.453c-0.275,0.471-0.445,0.666-0.629,0.873c-0.232,0.268-0.551,0.627-0.801,1.211
		c-0.014,0.018-0.027,0.035-0.041,0.051c-0.229,0.271-0.863,1.021-0.814,2.133c-0.189,0.291-0.297,0.559-0.369,0.74
		c-0.016,0.039-0.029,0.082-0.053,0.127c-0.404,0.398-0.812,0.895-0.973,1.574c-0.223,0.299-0.396,0.654-0.529,1.078
		c-0.109,0.346-0.109,0.346-0.393,0.742l-0.143,0.203c-0.08,0.109-0.145,0.199-0.199,0.273c-0.332,0.447-0.555,0.836-0.648,1.336
		c-0.246,0.275-0.502,0.652-0.697,1.17c-0.143,0.369-0.312,0.658-0.477,0.936c-0.123,0.213-0.252,0.432-0.359,0.676
		c-0.074,0.164-0.162,0.316-0.236,0.451c-0.014,0.025-0.027,0.049-0.039,0.072c-0.479,0.318-0.982,0.896-1.105,1.936v0.004
		c-0.012,0.025-0.02,0.051-0.029,0.076c-0.383,0.338-0.598,0.732-0.729,1.133c-0.162,0.193-0.279,0.396-0.363,0.592
		c-0.162,0.17-0.346,0.391-0.512,0.684c-0.631,0.799-0.775,1.666-0.449,2.598c-0.02,0.072-0.037,0.148-0.051,0.225
		c-0.021,0.027-0.043,0.055-0.064,0.084c-1.002,0.781-1.07,1.785-1.014,2.34c0.031,0.309,0.088,0.627,0.139,0.859
		c0,0.09,0.004,0.178,0.008,0.262c0.01,0.225,0.023,0.531,0.004,1.01c-0.012,0.281-0.004,0.539,0.012,0.766
		c-0.285,0.566-0.395,1.316-0.328,2.25c0.018,0.26,0,0.51-0.018,0.773c-0.094,1.324,0.234,2.277,0.98,2.844
		c0.174,0.324,0.412,0.607,0.711,0.846c0.436,0.463,1.045,0.732,1.703,0.732c0.9,0,1.746-0.514,2.277-1.381
		c0.496-0.326,0.773-0.77,0.93-1.1c0.383-0.34,0.646-0.764,0.789-1.268c0.32-0.328,0.51-0.678,0.625-0.967
		c0.158-0.18,0.293-0.375,0.4-0.59c0.064-0.043,0.131-0.088,0.197-0.139c0.992-0.744,1.141-1.734,1.172-2.262
		c0.076-0.076,0.17-0.176,0.271-0.297c1.029-0.406,1.66-1.385,1.66-2.645c0.012-0.061,0.111-0.35,0.186-0.498
		c0.062-0.074,0.146-0.162,0.227-0.246c0.158-0.172,0.314-0.34,0.455-0.52c0.432-0.225,0.703-0.52,0.861-0.691
		c0.037-0.039,0.08-0.088,0.139-0.145l0.025-0.012c0.203-0.135,0.578-0.383,0.943-0.871c0.273-0.363,0.541-0.898,0.533-1.596
		c0.225-0.258,0.389-0.555,0.486-0.875c0.463-0.498,0.686-0.98,0.887-1.42l0.109-0.238c0.045-0.098,0.107-0.234,0.162-0.35
		c0.838-0.625,1.061-1.529,1.174-2.025c0.514-0.379,0.848-0.828,1.006-1.346c0.703-0.521,1.152-1.191,1.289-2.428
		c0.041-0.359,0.104-0.637,0.15-0.795c0.027-0.031,0.057-0.064,0.086-0.1c0.221-0.264,0.473-0.559,0.668-0.926l0.066-0.096
		c0.242-0.338,0.691-0.963,0.934-1.889c0.057-0.113,0.273-0.328,0.449-0.5l0.25-0.248c0.59-0.592,0.873-0.963,1.104-1.373
		c0.076,0.119,0.152,0.221,0.223,0.309c0.23,1.209,0.871,1.951,1.596,2.342c0.152,0.242,0.322,0.441,0.492,0.6
		c0.078,0.338,0.191,0.723,0.342,1.086c0.275,0.662,0.484,1.104,1.139,1.816c0.055,0.059,0.15,0.197,0.238,0.32
		c0.246,0.354,0.588,0.844,1.119,1.252c0.029,0.094,0.066,0.195,0.109,0.301c0.225,0.541,0.574,1.023,0.912,1.49
		c0.143,0.199,0.297,0.408,0.438,0.629l0.156,0.246c0.256,0.416,0.637,1.031,1.412,1.422c0.078,0.629,0.322,1.285,1.045,2.055
		c0.18,0.191,0.354,0.365,0.514,0.525c0.092,0.092,0.205,0.205,0.285,0.289c0.369,1.082,1.131,1.99,2.08,2.463
		c0.203,0.104,0.477,0.342,0.594,0.492c0.957,1.232,2.178,1.389,3.135,1.389c0.127,0,0.248-0.004,0.363-0.012
		c0.584,0.662,1.207,1.076,2.283,1.291c0.23,0.045,0.537,0.1,0.869,0.098c0.676,0.002,1.141-0.205,1.482-0.359l0.148-0.064
		c0.24-0.037,0.689-0.125,1.15-0.449c1.148-0.146,1.799-0.754,2.104-1.084c0.326-0.201,0.943-0.67,1.176-1.574
		c0.193-0.752,0.043-1.541-0.445-2.342c-0.217-0.355-0.506-0.754-0.838-1.215c-0.447-0.617-0.951-1.316-1.277-1.906
		c-1.254-2.273-1.814-3.012-2.211-3.387c-0.07-0.119-0.17-0.314-0.238-0.443c-0.182-0.35-0.348-0.674-0.562-0.959
		c-0.01-0.029-0.02-0.057-0.027-0.086c-0.162-0.539-0.408-1.354-0.906-2.1c-0.123-0.186-0.217-0.369-0.314-0.561
		c-0.148-0.291-0.432-0.846-0.939-1.279c-0.086-0.316-0.211-0.684-0.416-1.053c-0.172-0.311-0.357-0.598-0.537-0.873
		c-0.189-0.291-0.367-0.566-0.43-0.748l-0.061-0.174c-0.234-0.67-0.498-1.428-1.283-2.277l-0.01-0.049
		c-0.082-0.459-0.234-1.295-0.824-1.971c-0.135-0.385-0.311-0.713-0.531-0.98c-0.059-0.18-0.139-0.379-0.252-0.582
		c-0.248-0.447-0.545-0.723-0.703-0.869l-0.053-0.051c0.002,0.002,0.002,0.002,0.004,0.002c0.006,0-0.01-0.035-0.029-0.08
		c-0.115-0.266-0.197-0.57-0.285-0.895c-0.123-0.459-0.268-0.98-0.531-1.51c-0.275-0.549-0.68-1.547-0.92-2.271
		c-0.123-0.369-0.254-0.709-0.365-1.002c-0.055-0.146-0.107-0.275-0.143-0.379c-0.035-0.281-0.115-0.518-0.199-0.711
		c0.168-0.246,0.35-0.551,0.588-0.953c0.189-0.318,0.535-0.9,0.689-1.1c0.496-0.477,0.748-0.989,0.916-1.333
		c0.094-0.192,0.143-0.289,0.203-0.359c0.5-0.576,0.695-1.077,0.811-1.375l0.018-0.047c0.367-0.369,0.754-0.811,1.021-1.332
		c0.361-0.236,0.654-0.505,0.848-0.697c0.314-0.314,0.49-0.643,0.594-0.864c0.588-0.563,0.758-1.188,0.844-1.508
		c0.037-0.132,0.039-0.143,0.072-0.202c0.213-0.357,0.551-0.816,0.85-1.222c0.176-0.237,0.336-0.455,0.465-0.642
		c0.074-0.107,0.145-0.178,0.201-0.24c0.207-0.227,0.566-0.617,0.775-1.23c0.119-0.168,0.258-0.38,0.381-0.646
		c0.279-0.236,0.609-0.596,0.822-1.137c0.203-0.229,0.455-0.552,0.699-1.043c0.016-0.008,0.031-0.016,0.047-0.023
		c0.715-0.357,1.074-0.946,1.268-1.264c0.002-0.004,0.006-0.01,0.008-0.014c0.498-0.316,1.193-0.952,1.273-2.068
		c0.053-0.117,0.094-0.221,0.129-0.31c0.041-0.104,0.066-0.169,0.088-0.204c0.062-0.105,0.117-0.209,0.162-0.305
		c0.742-0.52,1.516-1.361,1.883-2.271c0.221-0.2,0.545-0.512,0.807-0.99l0.113-0.215c0.814-0.467,1.422-1.261,2.064-2.168
		l0.082-0.113c0.215-0.301,0.236-0.316,0.443-0.471c0.709-0.533,1-1.133,1.191-1.529l0.07-0.145
		c0.121-0.242,0.207-0.484,0.283-0.697c0.006-0.018,0.012-0.037,0.018-0.055c0.506-0.343,0.883-0.791,1.156-1.57
		c0.113-0.109,0.246-0.244,0.385-0.412c0.273-0.328,0.988-1.186,0.949-2.414c0.137-0.215,0.312-0.479,0.459-0.695
		c0.693-1.035,1.477-2.209,1.764-3.285c0.111-0.428,0.271-0.918,0.426-1.393c0.414-1.271,0.713-2.19,0.588-3.066
		c-0.023-0.162-0.045-0.457-0.072-0.787c-0.111-1.438-0.182-2.076-0.42-2.611c-0.057-0.129-0.137-0.285-0.234-0.471
		c-0.176-0.334-0.393-0.75-0.537-1.269c-0.082-0.293-0.129-0.536-0.168-0.731c-0.098-0.484-0.256-1.284-0.879-1.879
		c-0.207-0.582-0.58-1.051-1.109-1.4C56.627,0.732,55.832,0.001,54.396,0.001"/>
</g>
</svg>
